<mxfile host="app.diagrams.net" modified="2021-04-18T16:16:23.023Z" agent="5.0 (Windows NT 10.0; Win64; x64) AppleWebKit/537.36 (KHTML, like Gecko) Chrome/89.0.4389.128 Safari/537.36" etag="3HRprXHoBWvhpJEvGq4H" version="14.6.1" type="github">
  <diagram id="O7iFTilPEIjYXxIZpiV1" name="Page-1">
    <mxGraphModel dx="2062" dy="1122" grid="1" gridSize="10" guides="1" tooltips="1" connect="1" arrows="1" fold="1" page="1" pageScale="1" pageWidth="827" pageHeight="1169" math="0" shadow="0">
      <root>
        <mxCell id="0" />
        <mxCell id="1" parent="0" />
        <mxCell id="UocY2NdPyTLbMavBxmu4-1" value="" style="rounded=0;whiteSpace=wrap;html=1;" vertex="1" parent="1">
          <mxGeometry x="40" y="50" width="360" height="310" as="geometry" />
        </mxCell>
        <mxCell id="UocY2NdPyTLbMavBxmu4-3" value="Infrastructure" style="rounded=0;whiteSpace=wrap;html=1;fillColor=#f5f5f5;strokeColor=#666666;fontColor=#333333;" vertex="1" parent="1">
          <mxGeometry x="50" y="310" width="340" height="40" as="geometry" />
        </mxCell>
        <mxCell id="UocY2NdPyTLbMavBxmu4-4" value="HostOS" style="rounded=0;whiteSpace=wrap;html=1;fillColor=#f8cecc;strokeColor=#b85450;" vertex="1" parent="1">
          <mxGeometry x="50" y="260" width="340" height="40" as="geometry" />
        </mxCell>
        <mxCell id="UocY2NdPyTLbMavBxmu4-5" value="Docker" style="rounded=0;whiteSpace=wrap;html=1;fillColor=#dae8fc;strokeColor=#6c8ebf;" vertex="1" parent="1">
          <mxGeometry x="50" y="210" width="340" height="40" as="geometry" />
        </mxCell>
        <mxCell id="UocY2NdPyTLbMavBxmu4-9" value="bins/Libs" style="rounded=0;whiteSpace=wrap;html=1;" vertex="1" parent="1">
          <mxGeometry x="50" y="150" width="100" height="40" as="geometry" />
        </mxCell>
        <mxCell id="UocY2NdPyTLbMavBxmu4-10" value="bins/Libs" style="rounded=0;whiteSpace=wrap;html=1;" vertex="1" parent="1">
          <mxGeometry x="170" y="150" width="100" height="40" as="geometry" />
        </mxCell>
        <mxCell id="UocY2NdPyTLbMavBxmu4-11" value="bins/Libs" style="rounded=0;whiteSpace=wrap;html=1;" vertex="1" parent="1">
          <mxGeometry x="290" y="150" width="100" height="40" as="geometry" />
        </mxCell>
        <mxCell id="UocY2NdPyTLbMavBxmu4-12" value="AppA" style="rounded=0;whiteSpace=wrap;html=1;" vertex="1" parent="1">
          <mxGeometry x="50" y="100" width="100" height="40" as="geometry" />
        </mxCell>
        <mxCell id="UocY2NdPyTLbMavBxmu4-13" value="AppB" style="rounded=0;whiteSpace=wrap;html=1;" vertex="1" parent="1">
          <mxGeometry x="170" y="100" width="100" height="40" as="geometry" />
        </mxCell>
        <mxCell id="UocY2NdPyTLbMavBxmu4-14" value="AppC" style="rounded=0;whiteSpace=wrap;html=1;" vertex="1" parent="1">
          <mxGeometry x="290" y="100" width="100" height="40" as="geometry" />
        </mxCell>
        <mxCell id="UocY2NdPyTLbMavBxmu4-16" value="" style="rounded=0;whiteSpace=wrap;html=1;fillColor=none;strokeColor=#FF6666;strokeWidth=2;" vertex="1" parent="1">
          <mxGeometry x="160" y="60" width="120" height="140" as="geometry" />
        </mxCell>
        <mxCell id="UocY2NdPyTLbMavBxmu4-17" value="Container" style="rounded=0;whiteSpace=wrap;html=1;fillColor=none;strokeColor=none;" vertex="1" parent="1">
          <mxGeometry x="160" y="60" width="120" height="30" as="geometry" />
        </mxCell>
        <mxCell id="UocY2NdPyTLbMavBxmu4-31" value="" style="rounded=0;whiteSpace=wrap;html=1;" vertex="1" parent="1">
          <mxGeometry x="430" y="50" width="360" height="310" as="geometry" />
        </mxCell>
        <mxCell id="UocY2NdPyTLbMavBxmu4-32" value="Infrastructure" style="rounded=0;whiteSpace=wrap;html=1;fillColor=#f5f5f5;strokeColor=#666666;fontColor=#333333;" vertex="1" parent="1">
          <mxGeometry x="440" y="310" width="340" height="40" as="geometry" />
        </mxCell>
        <mxCell id="UocY2NdPyTLbMavBxmu4-33" value="HostOS" style="rounded=0;whiteSpace=wrap;html=1;fillColor=#f8cecc;strokeColor=#b85450;" vertex="1" parent="1">
          <mxGeometry x="440" y="260" width="340" height="40" as="geometry" />
        </mxCell>
        <mxCell id="UocY2NdPyTLbMavBxmu4-35" value="bins/Libs" style="rounded=0;whiteSpace=wrap;html=1;" vertex="1" parent="1">
          <mxGeometry x="440" y="150" width="100" height="40" as="geometry" />
        </mxCell>
        <mxCell id="UocY2NdPyTLbMavBxmu4-36" value="bins/Libs" style="rounded=0;whiteSpace=wrap;html=1;" vertex="1" parent="1">
          <mxGeometry x="560" y="150" width="100" height="40" as="geometry" />
        </mxCell>
        <mxCell id="UocY2NdPyTLbMavBxmu4-37" value="bins/Libs" style="rounded=0;whiteSpace=wrap;html=1;" vertex="1" parent="1">
          <mxGeometry x="680" y="150" width="100" height="40" as="geometry" />
        </mxCell>
        <mxCell id="UocY2NdPyTLbMavBxmu4-38" value="AppA" style="rounded=0;whiteSpace=wrap;html=1;" vertex="1" parent="1">
          <mxGeometry x="440" y="100" width="100" height="40" as="geometry" />
        </mxCell>
        <mxCell id="UocY2NdPyTLbMavBxmu4-39" value="AppB" style="rounded=0;whiteSpace=wrap;html=1;" vertex="1" parent="1">
          <mxGeometry x="560" y="100" width="100" height="40" as="geometry" />
        </mxCell>
        <mxCell id="UocY2NdPyTLbMavBxmu4-40" value="AppC" style="rounded=0;whiteSpace=wrap;html=1;" vertex="1" parent="1">
          <mxGeometry x="680" y="100" width="100" height="40" as="geometry" />
        </mxCell>
        <mxCell id="UocY2NdPyTLbMavBxmu4-41" value="" style="rounded=0;whiteSpace=wrap;html=1;fillColor=none;strokeColor=#FF6666;strokeWidth=2;" vertex="1" parent="1">
          <mxGeometry x="550" y="60" width="120" height="190" as="geometry" />
        </mxCell>
        <mxCell id="UocY2NdPyTLbMavBxmu4-42" value="VM" style="rounded=0;whiteSpace=wrap;html=1;fillColor=none;strokeColor=none;" vertex="1" parent="1">
          <mxGeometry x="550" y="60" width="120" height="30" as="geometry" />
        </mxCell>
        <mxCell id="UocY2NdPyTLbMavBxmu4-43" value="GuestOS" style="rounded=0;whiteSpace=wrap;html=1;" vertex="1" parent="1">
          <mxGeometry x="440" y="200" width="100" height="40" as="geometry" />
        </mxCell>
        <mxCell id="UocY2NdPyTLbMavBxmu4-44" value="GuestOS" style="rounded=0;whiteSpace=wrap;html=1;" vertex="1" parent="1">
          <mxGeometry x="560" y="200" width="100" height="40" as="geometry" />
        </mxCell>
        <mxCell id="UocY2NdPyTLbMavBxmu4-45" value="GuestOS" style="rounded=0;whiteSpace=wrap;html=1;" vertex="1" parent="1">
          <mxGeometry x="680" y="200" width="100" height="40" as="geometry" />
        </mxCell>
      </root>
    </mxGraphModel>
  </diagram>
</mxfile>
